<mxfile host="app.diagrams.net" modified="2024-05-13T08:18:48.110Z" agent="Mozilla/5.0 (Windows NT 10.0; Win64; x64) AppleWebKit/537.36 (KHTML, like Gecko) Chrome/124.0.0.0 Safari/537.36" etag="DZP2r9JfpGYIEzxIpxec" version="24.4.0" type="github">
  <diagram name="페이지-1" id="bvrvECd5kg53nqww_VoU">
    <mxGraphModel dx="1960" dy="2042" grid="0" gridSize="10" guides="1" tooltips="1" connect="1" arrows="1" fold="1" page="0" pageScale="1" pageWidth="827" pageHeight="1169" math="0" shadow="0">
      <root>
        <mxCell id="0" />
        <mxCell id="1" parent="0" />
        <mxCell id="6m6w6Bbl3CI329jRPUhq-1" value="보건소 소개" style="rounded=0;whiteSpace=wrap;html=1;fontStyle=1;fontSize=15;fillColor=#d5e8d4;strokeColor=#82b366;" vertex="1" parent="1">
          <mxGeometry x="-67" y="-22" width="120" height="60" as="geometry" />
        </mxCell>
        <mxCell id="6m6w6Bbl3CI329jRPUhq-2" value="고객" style="rounded=0;whiteSpace=wrap;html=1;fontSize=15;fontStyle=1;fillColor=#d5e8d4;strokeColor=#82b366;" vertex="1" parent="1">
          <mxGeometry x="376" y="-22" width="120" height="60" as="geometry" />
        </mxCell>
        <mxCell id="6m6w6Bbl3CI329jRPUhq-3" value="민원업무" style="rounded=0;whiteSpace=wrap;html=1;fontSize=15;fontStyle=1;fillColor=#d5e8d4;strokeColor=#82b366;" vertex="1" parent="1">
          <mxGeometry x="378" y="331" width="120" height="60" as="geometry" />
        </mxCell>
        <mxCell id="6m6w6Bbl3CI329jRPUhq-4" value="검색" style="rhombus;whiteSpace=wrap;html=1;fontSize=15;fontStyle=1;fillColor=#fff2cc;strokeColor=#d6b656;" vertex="1" parent="1">
          <mxGeometry x="158" y="-24" width="116" height="64" as="geometry" />
        </mxCell>
        <mxCell id="6m6w6Bbl3CI329jRPUhq-7" value="민원" style="rhombus;whiteSpace=wrap;html=1;fontSize=15;fontStyle=1;fillColor=#fff2cc;strokeColor=#d6b656;" vertex="1" parent="1">
          <mxGeometry x="378" y="156" width="116" height="64" as="geometry" />
        </mxCell>
        <mxCell id="6m6w6Bbl3CI329jRPUhq-8" value="보건사업" style="rounded=0;whiteSpace=wrap;html=1;fontSize=15;fontStyle=1;fillColor=#d5e8d4;strokeColor=#82b366;" vertex="1" parent="1">
          <mxGeometry x="-67" y="338" width="120" height="60" as="geometry" />
        </mxCell>
        <mxCell id="6m6w6Bbl3CI329jRPUhq-9" value="이용" style="rhombus;whiteSpace=wrap;html=1;fontSize=15;fontStyle=1;fillColor=#fff2cc;strokeColor=#d6b656;" vertex="1" parent="1">
          <mxGeometry x="124" y="156" width="116" height="64" as="geometry" />
        </mxCell>
        <mxCell id="6m6w6Bbl3CI329jRPUhq-10" value="" style="endArrow=none;html=1;rounded=0;fontSize=15;startSize=8;endSize=8;curved=1;exitX=0.5;exitY=0;exitDx=0;exitDy=0;fontStyle=1" edge="1" parent="1" source="6m6w6Bbl3CI329jRPUhq-7">
          <mxGeometry width="50" height="50" relative="1" as="geometry">
            <mxPoint x="435.41" y="137" as="sourcePoint" />
            <mxPoint x="435.41" y="38" as="targetPoint" />
          </mxGeometry>
        </mxCell>
        <mxCell id="6m6w6Bbl3CI329jRPUhq-11" value="" style="endArrow=none;html=1;rounded=0;fontSize=15;startSize=8;endSize=8;curved=1;fontStyle=1" edge="1" parent="1">
          <mxGeometry width="50" height="50" relative="1" as="geometry">
            <mxPoint x="54" y="7.409999999999997" as="sourcePoint" />
            <mxPoint x="158" y="7.409999999999997" as="targetPoint" />
          </mxGeometry>
        </mxCell>
        <mxCell id="6m6w6Bbl3CI329jRPUhq-12" value="" style="endArrow=none;html=1;rounded=0;fontSize=15;startSize=8;endSize=8;curved=1;fontStyle=1" edge="1" parent="1">
          <mxGeometry width="50" height="50" relative="1" as="geometry">
            <mxPoint x="272" y="7.409999999999997" as="sourcePoint" />
            <mxPoint x="376" y="7.409999999999997" as="targetPoint" />
          </mxGeometry>
        </mxCell>
        <mxCell id="6m6w6Bbl3CI329jRPUhq-13" value="" style="endArrow=none;html=1;rounded=0;fontSize=15;startSize=8;endSize=8;curved=1;entryX=0.5;entryY=0;entryDx=0;entryDy=0;fontStyle=1" edge="1" parent="1" target="6m6w6Bbl3CI329jRPUhq-3">
          <mxGeometry width="50" height="50" relative="1" as="geometry">
            <mxPoint x="436.5" y="220" as="sourcePoint" />
            <mxPoint x="439.5" y="319" as="targetPoint" />
          </mxGeometry>
        </mxCell>
        <mxCell id="6m6w6Bbl3CI329jRPUhq-14" value="" style="endArrow=none;html=1;rounded=0;fontSize=15;startSize=8;endSize=8;curved=1;fontStyle=1;exitX=0.5;exitY=0;exitDx=0;exitDy=0;" edge="1" parent="1" source="6m6w6Bbl3CI329jRPUhq-9">
          <mxGeometry width="50" height="50" relative="1" as="geometry">
            <mxPoint x="272" y="36.81999999999999" as="sourcePoint" />
            <mxPoint x="376" y="36.81999999999999" as="targetPoint" />
          </mxGeometry>
        </mxCell>
        <mxCell id="6m6w6Bbl3CI329jRPUhq-16" value="" style="endArrow=none;html=1;rounded=0;fontSize=15;startSize=8;endSize=8;curved=1;fontStyle=1;entryX=0.5;entryY=1;entryDx=0;entryDy=0;" edge="1" parent="1" target="6m6w6Bbl3CI329jRPUhq-9">
          <mxGeometry width="50" height="50" relative="1" as="geometry">
            <mxPoint x="-12" y="337.18" as="sourcePoint" />
            <mxPoint x="158" y="205" as="targetPoint" />
          </mxGeometry>
        </mxCell>
        <mxCell id="6m6w6Bbl3CI329jRPUhq-17" value="등록번" style="ellipse;whiteSpace=wrap;html=1;fontSize=15;fontStyle=1;fillColor=#f5f5f5;fontColor=#333333;strokeColor=#666666;" vertex="1" parent="1">
          <mxGeometry x="-234" y="-167" width="95" height="66" as="geometry" />
        </mxCell>
        <mxCell id="6m6w6Bbl3CI329jRPUhq-18" value="직원정보" style="ellipse;whiteSpace=wrap;html=1;fontSize=15;fontStyle=1;fillColor=#f5f5f5;fontColor=#333333;strokeColor=#666666;" vertex="1" parent="1">
          <mxGeometry x="-234" y="-75" width="95" height="66" as="geometry" />
        </mxCell>
        <mxCell id="6m6w6Bbl3CI329jRPUhq-19" value="조직도" style="ellipse;whiteSpace=wrap;html=1;fontSize=15;fontStyle=1;fillColor=#f5f5f5;fontColor=#333333;strokeColor=#666666;" vertex="1" parent="1">
          <mxGeometry x="-234" y="16" width="95" height="66" as="geometry" />
        </mxCell>
        <mxCell id="6m6w6Bbl3CI329jRPUhq-20" value="층별안내" style="ellipse;whiteSpace=wrap;html=1;fontSize=15;fontStyle=1;fillColor=#f5f5f5;fontColor=#333333;strokeColor=#666666;" vertex="1" parent="1">
          <mxGeometry x="-234" y="107" width="95" height="66" as="geometry" />
        </mxCell>
        <mxCell id="6m6w6Bbl3CI329jRPUhq-22" value="이름" style="ellipse;whiteSpace=wrap;html=1;fontSize=15;fontStyle=1;fillColor=#f5f5f5;fontColor=#333333;strokeColor=#666666;" vertex="1" parent="1">
          <mxGeometry x="605" y="-160" width="95" height="66" as="geometry" />
        </mxCell>
        <mxCell id="6m6w6Bbl3CI329jRPUhq-23" value="나이" style="ellipse;whiteSpace=wrap;html=1;fontSize=15;fontStyle=1;fillColor=#f5f5f5;fontColor=#333333;strokeColor=#666666;" vertex="1" parent="1">
          <mxGeometry x="605" y="-68" width="95" height="66" as="geometry" />
        </mxCell>
        <mxCell id="6m6w6Bbl3CI329jRPUhq-24" value="주민번호" style="ellipse;whiteSpace=wrap;html=1;fontSize=15;fontStyle=1;fillColor=#f5f5f5;fontColor=#333333;strokeColor=#666666;" vertex="1" parent="1">
          <mxGeometry x="605" y="23" width="95" height="66" as="geometry" />
        </mxCell>
        <mxCell id="6m6w6Bbl3CI329jRPUhq-25" value="전화번호" style="ellipse;whiteSpace=wrap;html=1;fontSize=15;fontStyle=1;fillColor=#f5f5f5;fontColor=#333333;strokeColor=#666666;" vertex="1" parent="1">
          <mxGeometry x="605" y="114" width="95" height="66" as="geometry" />
        </mxCell>
        <mxCell id="6m6w6Bbl3CI329jRPUhq-26" value="진료안내" style="ellipse;whiteSpace=wrap;html=1;fontSize=15;fontStyle=1;fillColor=#f5f5f5;fontColor=#333333;strokeColor=#666666;" vertex="1" parent="1">
          <mxGeometry x="607" y="275" width="95" height="66" as="geometry" />
        </mxCell>
        <mxCell id="6m6w6Bbl3CI329jRPUhq-27" value="검사안내" style="ellipse;whiteSpace=wrap;html=1;fontSize=15;fontStyle=1;fillColor=#f5f5f5;fontColor=#333333;strokeColor=#666666;" vertex="1" parent="1">
          <mxGeometry x="607" y="367" width="95" height="66" as="geometry" />
        </mxCell>
        <mxCell id="6m6w6Bbl3CI329jRPUhq-28" value="민원번호" style="ellipse;whiteSpace=wrap;html=1;fontSize=15;fontStyle=1;fillColor=#f5f5f5;fontColor=#333333;strokeColor=#666666;" vertex="1" parent="1">
          <mxGeometry x="607" y="458" width="95" height="66" as="geometry" />
        </mxCell>
        <mxCell id="6m6w6Bbl3CI329jRPUhq-29" value="제증명발급" style="ellipse;whiteSpace=wrap;html=1;fontSize=15;fontStyle=1;fillColor=#f5f5f5;fontColor=#333333;strokeColor=#666666;" vertex="1" parent="1">
          <mxGeometry x="607" y="549" width="95" height="66" as="geometry" />
        </mxCell>
        <mxCell id="6m6w6Bbl3CI329jRPUhq-31" value="" style="endArrow=none;html=1;rounded=0;fontSize=12;startSize=8;endSize=8;curved=1;exitX=1;exitY=0.5;exitDx=0;exitDy=0;" edge="1" parent="1" source="6m6w6Bbl3CI329jRPUhq-3">
          <mxGeometry width="50" height="50" relative="1" as="geometry">
            <mxPoint x="555" y="356" as="sourcePoint" />
            <mxPoint x="605" y="306" as="targetPoint" />
          </mxGeometry>
        </mxCell>
        <mxCell id="6m6w6Bbl3CI329jRPUhq-32" value="" style="endArrow=none;html=1;rounded=0;fontSize=12;startSize=8;endSize=8;curved=1;" edge="1" parent="1">
          <mxGeometry width="50" height="50" relative="1" as="geometry">
            <mxPoint x="494" y="2" as="sourcePoint" />
            <mxPoint x="605" y="-121" as="targetPoint" />
          </mxGeometry>
        </mxCell>
        <mxCell id="6m6w6Bbl3CI329jRPUhq-33" value="" style="endArrow=none;html=1;rounded=0;fontSize=12;startSize=8;endSize=8;curved=1;exitX=1;exitY=0.5;exitDx=0;exitDy=0;entryX=0;entryY=0.5;entryDx=0;entryDy=0;" edge="1" parent="1" source="6m6w6Bbl3CI329jRPUhq-17" target="6m6w6Bbl3CI329jRPUhq-1">
          <mxGeometry width="50" height="50" relative="1" as="geometry">
            <mxPoint x="-130" y="-65" as="sourcePoint" />
            <mxPoint x="-70" y="-5" as="targetPoint" />
          </mxGeometry>
        </mxCell>
        <mxCell id="6m6w6Bbl3CI329jRPUhq-34" value="" style="endArrow=none;html=1;rounded=0;fontSize=12;startSize=8;endSize=8;curved=1;exitX=1;exitY=0.5;exitDx=0;exitDy=0;entryX=0;entryY=0.5;entryDx=0;entryDy=0;" edge="1" parent="1" target="6m6w6Bbl3CI329jRPUhq-1">
          <mxGeometry width="50" height="50" relative="1" as="geometry">
            <mxPoint x="-139" y="-42" as="sourcePoint" />
            <mxPoint x="-75" y="-5" as="targetPoint" />
          </mxGeometry>
        </mxCell>
        <mxCell id="6m6w6Bbl3CI329jRPUhq-35" value="" style="endArrow=none;html=1;rounded=0;fontSize=12;startSize=8;endSize=8;curved=1;entryX=0;entryY=0.5;entryDx=0;entryDy=0;" edge="1" parent="1" target="6m6w6Bbl3CI329jRPUhq-1">
          <mxGeometry width="50" height="50" relative="1" as="geometry">
            <mxPoint x="-140" y="48" as="sourcePoint" />
            <mxPoint x="-70" y="2" as="targetPoint" />
          </mxGeometry>
        </mxCell>
        <mxCell id="6m6w6Bbl3CI329jRPUhq-36" value="" style="endArrow=none;html=1;rounded=0;fontSize=12;startSize=8;endSize=8;curved=1;exitX=1;exitY=0.5;exitDx=0;exitDy=0;entryX=0;entryY=0.5;entryDx=0;entryDy=0;" edge="1" parent="1" target="6m6w6Bbl3CI329jRPUhq-1">
          <mxGeometry width="50" height="50" relative="1" as="geometry">
            <mxPoint x="-136" y="139" as="sourcePoint" />
            <mxPoint x="-67" y="268" as="targetPoint" />
          </mxGeometry>
        </mxCell>
        <mxCell id="6m6w6Bbl3CI329jRPUhq-37" value="" style="endArrow=none;html=1;rounded=0;fontSize=12;startSize=8;endSize=8;curved=1;exitX=1;exitY=0.5;exitDx=0;exitDy=0;" edge="1" parent="1" source="6m6w6Bbl3CI329jRPUhq-2">
          <mxGeometry width="50" height="50" relative="1" as="geometry">
            <mxPoint x="498" y="90" as="sourcePoint" />
            <mxPoint x="607" y="-24" as="targetPoint" />
          </mxGeometry>
        </mxCell>
        <mxCell id="6m6w6Bbl3CI329jRPUhq-38" value="" style="endArrow=none;html=1;rounded=0;fontSize=12;startSize=8;endSize=8;curved=1;exitX=1;exitY=0.5;exitDx=0;exitDy=0;" edge="1" parent="1" source="6m6w6Bbl3CI329jRPUhq-2">
          <mxGeometry width="50" height="50" relative="1" as="geometry">
            <mxPoint x="498" y="173" as="sourcePoint" />
            <mxPoint x="607" y="59" as="targetPoint" />
          </mxGeometry>
        </mxCell>
        <mxCell id="6m6w6Bbl3CI329jRPUhq-39" value="" style="endArrow=none;html=1;rounded=0;fontSize=12;startSize=8;endSize=8;curved=1;exitX=1;exitY=0.5;exitDx=0;exitDy=0;" edge="1" parent="1" source="6m6w6Bbl3CI329jRPUhq-2">
          <mxGeometry width="50" height="50" relative="1" as="geometry">
            <mxPoint x="496" y="261" as="sourcePoint" />
            <mxPoint x="605" y="147" as="targetPoint" />
          </mxGeometry>
        </mxCell>
        <mxCell id="6m6w6Bbl3CI329jRPUhq-40" value="" style="endArrow=none;html=1;rounded=0;fontSize=12;startSize=8;endSize=8;curved=1;exitX=1;exitY=0.5;exitDx=0;exitDy=0;" edge="1" parent="1" source="6m6w6Bbl3CI329jRPUhq-3">
          <mxGeometry width="50" height="50" relative="1" as="geometry">
            <mxPoint x="498" y="512" as="sourcePoint" />
            <mxPoint x="607" y="398" as="targetPoint" />
          </mxGeometry>
        </mxCell>
        <mxCell id="6m6w6Bbl3CI329jRPUhq-41" value="" style="endArrow=none;html=1;rounded=0;fontSize=12;startSize=8;endSize=8;curved=1;exitX=1;exitY=0.5;exitDx=0;exitDy=0;" edge="1" parent="1" source="6m6w6Bbl3CI329jRPUhq-3">
          <mxGeometry width="50" height="50" relative="1" as="geometry">
            <mxPoint x="498" y="456" as="sourcePoint" />
            <mxPoint x="607" y="493" as="targetPoint" />
          </mxGeometry>
        </mxCell>
        <mxCell id="6m6w6Bbl3CI329jRPUhq-42" value="" style="endArrow=none;html=1;rounded=0;fontSize=12;startSize=8;endSize=8;curved=1;exitX=1;exitY=0.5;exitDx=0;exitDy=0;entryX=0;entryY=0.5;entryDx=0;entryDy=0;" edge="1" parent="1" source="6m6w6Bbl3CI329jRPUhq-3" target="6m6w6Bbl3CI329jRPUhq-29">
          <mxGeometry width="50" height="50" relative="1" as="geometry">
            <mxPoint x="494" y="541" as="sourcePoint" />
            <mxPoint x="603" y="578" as="targetPoint" />
          </mxGeometry>
        </mxCell>
        <mxCell id="6m6w6Bbl3CI329jRPUhq-51" value="사업등록번호" style="ellipse;whiteSpace=wrap;html=1;fontSize=15;fontStyle=1;fillColor=#f5f5f5;fontColor=#333333;strokeColor=#666666;" vertex="1" parent="1">
          <mxGeometry x="-234" y="275" width="95" height="66" as="geometry" />
        </mxCell>
        <mxCell id="6m6w6Bbl3CI329jRPUhq-52" value="재활사업" style="ellipse;whiteSpace=wrap;html=1;fontSize=15;fontStyle=1;fillColor=#f5f5f5;fontColor=#333333;strokeColor=#666666;" vertex="1" parent="1">
          <mxGeometry x="-234" y="367" width="95" height="66" as="geometry" />
        </mxCell>
        <mxCell id="6m6w6Bbl3CI329jRPUhq-53" value="의료비지원" style="ellipse;whiteSpace=wrap;html=1;fontSize=15;fontStyle=1;fillColor=#f5f5f5;fontColor=#333333;strokeColor=#666666;" vertex="1" parent="1">
          <mxGeometry x="-234" y="458" width="95" height="66" as="geometry" />
        </mxCell>
        <mxCell id="6m6w6Bbl3CI329jRPUhq-54" value="건강증진사업" style="ellipse;whiteSpace=wrap;html=1;fontSize=15;fontStyle=1;fillColor=#f5f5f5;fontColor=#333333;strokeColor=#666666;" vertex="1" parent="1">
          <mxGeometry x="-234" y="549" width="95" height="66" as="geometry" />
        </mxCell>
        <mxCell id="6m6w6Bbl3CI329jRPUhq-59" value="" style="endArrow=none;html=1;rounded=0;fontSize=12;startSize=8;endSize=8;curved=1;exitX=1;exitY=0.5;exitDx=0;exitDy=0;entryX=0;entryY=0.5;entryDx=0;entryDy=0;" edge="1" parent="1" source="6m6w6Bbl3CI329jRPUhq-51">
          <mxGeometry width="50" height="50" relative="1" as="geometry">
            <mxPoint x="-139" y="231.5" as="sourcePoint" />
            <mxPoint x="-67" y="373.5" as="targetPoint" />
          </mxGeometry>
        </mxCell>
        <mxCell id="6m6w6Bbl3CI329jRPUhq-60" value="" style="endArrow=none;html=1;rounded=0;fontSize=12;startSize=8;endSize=8;curved=1;exitX=1;exitY=0.5;exitDx=0;exitDy=0;entryX=0;entryY=0.5;entryDx=0;entryDy=0;" edge="1" parent="1" source="6m6w6Bbl3CI329jRPUhq-52">
          <mxGeometry width="50" height="50" relative="1" as="geometry">
            <mxPoint x="-139" y="323.5" as="sourcePoint" />
            <mxPoint x="-67" y="373.5" as="targetPoint" />
          </mxGeometry>
        </mxCell>
        <mxCell id="6m6w6Bbl3CI329jRPUhq-61" value="" style="endArrow=none;html=1;rounded=0;fontSize=12;startSize=8;endSize=8;curved=1;entryX=0;entryY=0.5;entryDx=0;entryDy=0;exitX=1;exitY=0.5;exitDx=0;exitDy=0;" edge="1" parent="1" source="6m6w6Bbl3CI329jRPUhq-53">
          <mxGeometry width="50" height="50" relative="1" as="geometry">
            <mxPoint x="-140" y="413.5" as="sourcePoint" />
            <mxPoint x="-67" y="373.5" as="targetPoint" />
          </mxGeometry>
        </mxCell>
        <mxCell id="6m6w6Bbl3CI329jRPUhq-62" value="" style="endArrow=none;html=1;rounded=0;fontSize=12;startSize=8;endSize=8;curved=1;exitX=1;exitY=0.5;exitDx=0;exitDy=0;entryX=0;entryY=0.5;entryDx=0;entryDy=0;" edge="1" parent="1" source="6m6w6Bbl3CI329jRPUhq-54">
          <mxGeometry width="50" height="50" relative="1" as="geometry">
            <mxPoint x="-136" y="504.5" as="sourcePoint" />
            <mxPoint x="-67" y="373.5" as="targetPoint" />
          </mxGeometry>
        </mxCell>
      </root>
    </mxGraphModel>
  </diagram>
</mxfile>
